<svg width="32" height="32" viewBox="0 0 32 32" xmlns="http://www.w3.org/2000/svg">
  <defs>
    <linearGradient id="cloudGradient" x1="0%" y1="0%" x2="100%" y2="100%">
      <stop offset="0%" style="stop-color:#667eea;stop-opacity:1" />
      <stop offset="100%" style="stop-color:#764ba2;stop-opacity:1" />
    </linearGradient>
    <linearGradient id="chartGradient" x1="0%" y1="100%" x2="0%" y2="0%">
      <stop offset="0%" style="stop-color:#F38020;stop-opacity:1" />
      <stop offset="100%" style="stop-color:#FCAD32;stop-opacity:1" />
    </linearGradient>
  </defs>
  
  <!-- 背景圆形 -->
  <circle cx="16" cy="16" r="15" fill="url(#cloudGradient)" stroke="#fff" stroke-width="1"/>
  
  <!-- Cloudflare云朵图标 (简化版) -->
  <path d="M21.8 12.2c.1-.3.05-.6-.1-.8-.15-.2-.4-.3-.7-.3l-5.8-.07c-.05 0-.09-.03-.09-.05 0-.03 0-.07 0-.1.02-.05.07-.1.13-.1l5.85-.07c.7-.03 1.44-.6 1.71-1.3l.34-.87c.02-.04.02-.07.02-.11C22.3 7.27 20.8 6 18.96 6c-1.67 0-3.1 1.1-3.6 2.6-.4-.3-.9-.4-1.2-.3-.81.07-1.44.73-1.53 1.55-.02.22 0 .42.04.6C11.7 10.59 10.7 11.7 10.7 13c0 .13.02.24.02.36 0 .05.05.09.11.09h10.66c.05 0 .13-.04.14-.11l.07-.29" fill="#fff" opacity="0.9"/>
  
  <!-- 分析图表元素 -->
  <g transform="translate(6, 18)">
    <!-- 柱状图 -->
    <rect x="1" y="6" width="2.5" height="4" fill="url(#chartGradient)" rx="0.5"/>
    <rect x="4.5" y="4" width="2.5" height="6" fill="url(#chartGradient)" rx="0.5"/>
    <rect x="8" y="2" width="2.5" height="8" fill="url(#chartGradient)" rx="0.5"/>
    <rect x="11.5" y="5" width="2.5" height="5" fill="url(#chartGradient)" rx="0.5"/>
    <rect x="15" y="3" width="2.5" height="7" fill="url(#chartGradient)" rx="0.5"/>
    
    <!-- 趋势线 -->
    <polyline points="2.25,8 6.25,6 9.25,4 12.75,7 16.25,5" fill="none" stroke="#fff" stroke-width="1.5" stroke-linecap="round" opacity="0.8"/>
    
    <!-- 数据点 -->
    <circle cx="2.25" cy="8" r="1" fill="#fff"/>
    <circle cx="6.25" cy="6" r="1" fill="#fff"/>
    <circle cx="9.25" cy="4" r="1" fill="#fff"/>
    <circle cx="12.75" cy="7" r="1" fill="#fff"/>
    <circle cx="16.25" cy="5" r="1" fill="#fff"/>
  </g>
  
  <!-- 装饰性数据流线 -->
  <g opacity="0.3">
    <path d="M4 24c2-1 4-2 6-1.5s4 1.5 6 1" stroke="#fff" stroke-width="1" fill="none"/>
    <path d="M5 26c2-.5 3-1 5-.8s3 .8 4 .5" stroke="#fff" stroke-width="0.8" fill="none"/>
  </g>
</svg>